<svg id="moose" xmlns="http://www.w3.org/2000/svg" width="37.19mm" height="46.47mm" viewBox="0 0 105.42 131.73"><title>Artboard 1</title><path id="body" d="M53.8,129.36H52.12A34.54,34.54,0,0,1,17.57,94.82V78.55c0-11.49,4.82-25.64,13.3-36.21-4-7.93-1.15-20.78,8.08-8.49a22.67,22.67,0,0,1,14-5.11h0a23.16,23.16,0,0,1,13.77,5c4.64-7.29,10.67-5.34,8,8C83,52.33,88.34,67.24,88.34,78.55V94.82A34.53,34.53,0,0,1,53.8,129.36Z" fill="#995724" stroke="#fff" stroke-miterlimit="10"/><g id="eye"><circle cx="44.3" cy="51.85" r="3.95" fill="#fff"/><circle cx="61.09" cy="51.82" r="3.95" fill="#fff"/></g><g id="pupil"><circle cx="45.69" cy="50.64" r="1.75" fill="#231f20"/><circle cx="60.48" cy="50.62" r="1.75" fill="#231f20"/></g><g id="earsInside"><path d="M32.91,39.61a43.5,43.5,0,0,1,4.78-4.5c.61-.48-3-4.53-4.78-4.5C30.51,30.65,30.25,33.88,32.91,39.61Z" fill="#fff"/><path d="M72,40.32a41.51,41.51,0,0,0-3.81-4.5c-.49-.47,2.35-4.53,3.81-4.5C73.92,31.36,74.12,34.6,72,40.32Z" fill="#fff"/></g><g id="antlers"><path d="M44.19,30s-8.94-13.34-18.14-8.84S2.73,18.26,2.94,13.76c.15-3.33,6.89-.85,10.4.68a5.4,5.4,0,0,0,5.47-.58c1.31-1,1.82-2.56-1.35-4.6C11.12,5.16-3,9.05,1.3,3.73S16.23.05,22,5.78s9.2,9.82,11.25,9.41,3.76-1.27-1.43-4.91c-7-4.93,8.72-10.91,7.09.82-.82,5.87,7,14.85,12.41,16C57.52,28.31,44.19,30,44.19,30Z" stroke="#fff" stroke-miterlimit="10"/><path d="M61.11,29.69s9.06-12.75,18.26-8.25,23.32-2.87,23.12-7.37c-.15-3.32-6.89-.84-10.4.68a5.42,5.42,0,0,1-5.48-.57c-1.3-1-1.82-2.56,1.35-4.61,6.35-4.09,20.46-.2,16.16-5.52S89.19.37,83.46,6.1s-9.2,9.81-11.25,9.41-3.76-1.27,1.44-4.91c7-4.93-8.73-10.91-7.09.81.82,5.88-6.92,15.07-12.41,16C50,28.05,61.11,29.69,61.11,29.69Z" stroke="#fff" stroke-miterlimit="10"/></g><g id="rightTopPaw"><path d="M19.21,66.57c1.65-5.26,24.13,18.52,25.67,21.79,3.09,6.6-24.45-4-26.76-14.42C17.78,72.4,18.08,70.15,19.21,66.57Z" fill="none" stroke="#fff" stroke-miterlimit="10"/><polygon points="43.64 85.25 48.14 89.55 45.38 90.27 46.09 92.52 39.55 89.96 43.64 85.25" fill="#231f20"/></g><g id="LeftTopPaw"><path d="M86.63,65.76C85,60.49,62.49,84.27,61,87.54c-3.1,6.6,24.44-4,26.76-14.42C88.06,71.59,87.75,69.34,86.63,65.76Z" fill="none" stroke="#fff" stroke-miterlimit="10"/><polygon points="61.91 85.22 66.92 89.21 60.58 92.18 60.48 89.82 57.72 89.82 61.91 85.22" fill="#231f20"/></g><g id="backPaws"><path d="M86.77,104.45c-1.66-5.27-28.59,19.33-30.12,22.6C64.78,131.76,84.31,119.89,86.77,104.45Z" fill="none" stroke="#fff" stroke-miterlimit="10"/><polygon points="57.61 124.73 62.62 128.72 56.28 131.69 56.17 129.34 53.41 129.34 57.61 124.73" fill="#231f20"/><path d="M19.16,103.32c4.65-3,32,20.62,30.27,23.78C40.54,133.8,20.8,116.72,19.16,103.32Z" fill="none" stroke="#fff" stroke-miterlimit="10"/><polygon points="48.47 124.78 43.46 128.77 49.8 131.73 49.91 129.38 52.67 129.38 48.47 124.78" fill="#231f20"/></g><ellipse cx="53.32" cy="65.09" rx="16.36" ry="8.54" fill="#f7f2e2" stroke="#fff" stroke-miterlimit="10" stroke-width="0.5"/><g id="nose"><path d="M56.91,58.39c0,.82-2.32,3.27-4.57,3.27s-4.43-2.45-4.43-3.27c0-1.64,2-1.86,4.43-1.86S56.91,56.75,56.91,58.39Z" fill="#231f20"/><line x1="52.53" y1="66.78" x2="52.59" y2="60.78" fill="#6b4b2c" stroke="#231f20" stroke-miterlimit="10" stroke-width="0.75"/><path d="M45.94,63.85c4.84,4.05,9,3.58,12.75,0" fill="none" stroke="#231f20" stroke-miterlimit="10" stroke-width="0.75"/></g></svg>