<svg id="bear" xmlns="http://www.w3.org/2000/svg" width="25.6mm" height="35.93mm" viewBox="0 0 72.56 101.86"><title>bear</title><path id="body" d="M37.22,101.9H35.55A34.54,34.54,0,0,1,1,67.36V51.09C1,39.6,5.82,25.45,14.3,14.88c-5.57-7.19-1.07-16.8,8.08-8.49a22.67,22.67,0,0,1,14-5.11h0a23.16,23.16,0,0,1,13.77,5c4.64-7.29,12.16-.56,8.05,8,8.26,10.55,13.56,25.46,13.56,36.77V67.36A34.54,34.54,0,0,1,37.22,101.9Z" fill="#54391b" stroke="#fff" stroke-miterlimit="10"/><g id="earsInside"><path d="M16.79,12.27c.35-.29,2.3-2.76,3.9-3.55.56-.28-2.13-2.27-3.78-2.25C14.73,6.49,14.38,9,16.79,12.27Z" fill="#fff"/><path d="M55.43,12.86a36.47,36.47,0,0,0-3.82-3.72c-.49-.39,1-2.7,2.42-2.67C56,6.5,57.55,8.13,55.43,12.86Z" fill="#fff"/></g><g id="nose"><path d="M43.43,31c0,1.24-3.86,5-7.61,5s-7.39-3.71-7.39-5c0-2.48,3.25-2.82,7.39-2.82S43.43,28.52,43.43,31Z" fill="#231f20"/><line x1="35.95" y1="41.32" x2="36.02" y2="35.32" fill="#6b4b2c" stroke="#231f20" stroke-miterlimit="10" stroke-width="0.75"/><path d="M29.36,38.39c4.85,4,9,3.58,12.75,0" fill="none" stroke="#231f20" stroke-miterlimit="10" stroke-width="0.75"/></g><g id="eye"><circle cx="27.73" cy="24.39" r="3.95" fill="#fff"/><circle cx="44.52" cy="24.36" r="3.95" fill="#fff"/></g><g id="pupil"><circle cx="29.11" cy="23.18" r="1.75" fill="#231f20"/><circle cx="43.91" cy="23.16" r="1.75" fill="#231f20"/></g><g id="wiskers"><line x1="11.7" y1="29.09" x2="23.77" y2="32.23" fill="#231f20" stroke="#fff" stroke-miterlimit="10" stroke-width="0.5"/><line x1="11.23" y1="31.61" x2="23.77" y2="33.52" fill="#231f20" stroke="#fff" stroke-miterlimit="10" stroke-width="0.5"/><line x1="10.34" y1="34.14" x2="23.84" y2="35.3" fill="#231f20" stroke="#fff" stroke-miterlimit="10" stroke-width="0.5"/><line x1="60.07" y1="29.64" x2="48" y2="32.77" fill="#231f20" stroke="#fff" stroke-miterlimit="10" stroke-width="0.5"/><line x1="60.55" y1="32.16" x2="48" y2="34.07" fill="#231f20" stroke="#fff" stroke-miterlimit="10" stroke-width="0.5"/><line x1="61.43" y1="34.68" x2="47.93" y2="35.84" fill="#231f20" stroke="#fff" stroke-miterlimit="10" stroke-width="0.5"/></g><g id="backPaws"><ellipse cx="29.11" cy="92.14" rx="7.09" ry="9" fill="#342411" stroke="#fff" stroke-miterlimit="10"/><circle cx="28.98" cy="95.95" r="3.55" fill="#fff"/><ellipse cx="32.88" cy="89.86" rx="2.2" ry="1.71" transform="translate(-62.35 80.52) rotate(-64.3)" fill="#fff"/><ellipse cx="29.06" cy="88.02" rx="1.71" ry="2.2" transform="translate(-6.15 2.27) rotate(-4.05)" fill="#fff"/><ellipse cx="25.31" cy="89.52" rx="1.71" ry="2.2" transform="translate(-27.02 12.61) rotate(-18.44)" fill="#fff"/><ellipse cx="43.74" cy="92.24" rx="7.09" ry="9" fill="#342411" stroke="#fff" stroke-miterlimit="10"/><circle cx="43.6" cy="96.06" r="3.55" fill="#fff"/><ellipse cx="47.5" cy="89.96" rx="2.2" ry="1.71" transform="translate(-54.16 93.75) rotate(-64.3)" fill="#fff"/><ellipse cx="43.68" cy="88.12" rx="1.71" ry="2.2" transform="translate(-6.12 3.31) rotate(-4.05)" fill="#fff"/><ellipse cx="39.93" cy="89.62" rx="1.71" ry="2.2" transform="matrix(0.95, -0.32, 0.32, 0.95, -26.3, 17.24)" fill="#fff"/></g><path id="topRightPaw" d="M2.8,39.23C7.71,37.89,32.05,55.8,28.5,61.86c-3.31,5.68-26.35-1.6-27.2-11.72C1.17,48.65,1.3,39.64,2.8,39.23Z" fill="none" stroke="#fff" stroke-miterlimit="10"/><path id="topLeftPaw" d="M70.08,40.35C65.16,39,40.83,56.92,44.37,63c3.32,5.67,26.35-1.61,27.21-11.73C71.7,49.77,71.58,40.76,70.08,40.35Z" fill="none" stroke="#fff" stroke-miterlimit="10"/></svg>