<svg id="Layer_1" data-name="Layer 1" xmlns="http://www.w3.org/2000/svg" width="25.32mm" height="35.85mm" viewBox="0 0 71.77 101.62"><title>beaver</title><path id="body" d="M36.72,101.12H35.05A34.54,34.54,0,0,1,.5,66.58V50.31C.5,38.82,5.32,24.67,13.8,14.1c-4-7.93-1.15-20.78,8.08-8.49A22.67,22.67,0,0,1,35.89.5h0a23.16,23.16,0,0,1,13.77,5c4.64-7.29,10.67-5.34,8.05,8C66,24.09,71.27,39,71.27,50.31V66.58A34.54,34.54,0,0,1,36.72,101.12Z" fill="#673414" stroke="#fff" stroke-miterlimit="10"/><g id="eye"><circle cx="27.23" cy="23.61" r="3.95" fill="#fff"/><circle cx="44.02" cy="23.59" r="3.95" fill="#fff"/></g><g id="pupil"><circle cx="28.61" cy="22.4" r="1.75" fill="#231f20"/><circle cx="43.41" cy="22.38" r="1.75" fill="#231f20"/></g><g id="earsInside"><path d="M15.84,11.37a44.13,44.13,0,0,1,4.77-4.5c.62-.48-2.95-4.53-4.77-4.5C13.44,2.41,13.18,5.64,15.84,11.37Z" fill="#fff"/><path d="M54.93,12.09a40,40,0,0,0-3.82-4.5c-.49-.48,2.36-4.53,3.82-4.5C56.85,3.12,57.05,6.36,54.93,12.09Z" fill="#fff"/></g><g id="paws"><path d="M2.14,38.34c1.65-5.27,24.13,18.51,25.67,21.78,3.09,6.6-24.45-4-26.76-14.42C.7,44.16,1,41.91,2.14,38.34Z" fill="none" stroke="#fff" stroke-miterlimit="10"/><path d="M69.55,37.52C67.9,32.25,45.42,56,43.88,59.3c-3.09,6.6,24.45-4,26.76-14.42C71,43.35,70.68,41.1,69.55,37.52Z" fill="none" stroke="#fff" stroke-miterlimit="10"/><path d="M24.94,56.44s-.81,4.8-3.68,4.4,4.91,1.53,5.52,1.43,1.95-1.33,1-2.15A31.62,31.62,0,0,1,24.94,56.44Z" fill="#fff"/><path d="M47,55.59s.82,4.8,3.68,4.39-4.91,1.54-5.52,1.43-1.94-1.32-1-2.14A31.25,31.25,0,0,0,47,55.59Z" fill="#fff"/></g><g id="wiskers"><line x1="11.2" y1="28.31" x2="23.27" y2="31.45" fill="#223f1c" stroke="#fff" stroke-miterlimit="10" stroke-width="0.5"/><line x1="10.73" y1="30.84" x2="23.27" y2="32.74" fill="#223f1c" stroke="#fff" stroke-miterlimit="10" stroke-width="0.5"/><line x1="9.84" y1="33.36" x2="23.34" y2="34.52" fill="#223f1c" stroke="#fff" stroke-miterlimit="10" stroke-width="0.5"/><line x1="59.57" y1="28.86" x2="47.5" y2="31.99" fill="#223f1c" stroke="#fff" stroke-miterlimit="10" stroke-width="0.5"/><line x1="60.05" y1="31.38" x2="47.5" y2="33.29" fill="#223f1c" stroke="#fff" stroke-miterlimit="10" stroke-width="0.5"/><line x1="60.93" y1="33.9" x2="47.43" y2="35.06" fill="#223f1c" stroke="#fff" stroke-miterlimit="10" stroke-width="0.5"/></g><g id="teeth"><path d="M34.27,42.66H31V37.52a8.7,8.7,0,0,0,3.24,1.19Z" fill="#fff"/><path d="M36.59,42.7h3.27V37.43a8.43,8.43,0,0,1-3.23,1.22Z" fill="#fff"/></g><g id="nose"><path d="M39.84,30.15c0,.82-2.32,3.28-4.57,3.28S30.84,31,30.84,30.15c0-1.63,1.95-1.86,4.43-1.86S39.84,28.52,39.84,30.15Z" fill="#231f20"/><line x1="35.45" y1="38.54" x2="35.52" y2="32.54" fill="#6b4b2c" stroke="#231f20" stroke-miterlimit="10" stroke-width="0.75"/><path d="M28.86,35.61c4.85,4,9,3.58,12.75,0" fill="none" stroke="#231f20" stroke-miterlimit="10" stroke-width="0.75"/></g><ellipse id="tail" cx="35.3" cy="87.09" rx="26.59" ry="12.95" fill="#673414" stroke="#fff" stroke-miterlimit="10"/></svg>