<svg id="cardinal" data-name="Layer 1" xmlns="http://www.w3.org/2000/svg" width="25.38mm" height="40.35mm" viewBox="0 0 71.95 114.38"><title>cardinal</title><path d="M57.84,26.3A36.94,36.94,0,0,0,45.2,16.38l-4.79-13L38,10,34.82,1.45l-3.25,8.8L29.09,3.49,24,17.35a32.63,32.63,0,0,0-10,9.5C5.45,37.42.63,51.58.63,63.06V79.33a34.55,34.55,0,0,0,34.55,34.55h1.68A34.55,34.55,0,0,0,71.41,79.33V63.06C71.41,51.75,66.1,36.85,57.84,26.3Z" fill="#ce4342" stroke="#fff" stroke-miterlimit="10"/><polygon id="nose" points="16.25 30.7 55.66 30.7 35.95 56.48 16.25 30.7" fill="#231f20"/><g id="backPaws"><ellipse cx="20.61" cy="108.18" rx="2.59" ry="5.18" transform="translate(-1.68 0.33) rotate(-0.89)" fill="#1a1111" stroke="#fff" stroke-miterlimit="10"/><ellipse cx="29.79" cy="108.05" rx="2.59" ry="5.18" transform="translate(-1.68 0.48) rotate(-0.89)" fill="#1a1111" stroke="#fff" stroke-miterlimit="10"/><ellipse cx="41.34" cy="108.18" rx="2.59" ry="5.18" transform="translate(-1.68 0.66) rotate(-0.89)" fill="#1a1111" stroke="#fff" stroke-miterlimit="10"/><ellipse cx="50.52" cy="108.05" rx="2.59" ry="5.18" transform="translate(-1.67 0.8) rotate(-0.89)" fill="#1a1111" stroke="#fff" stroke-miterlimit="10"/><ellipse cx="46.16" cy="108.11" rx="2.59" ry="5.18" transform="translate(-1.67 0.73) rotate(-0.89)" fill="#1a1111" stroke="#fff" stroke-miterlimit="10"/><ellipse cx="24.97" cy="108.11" rx="2.59" ry="5.18" transform="translate(-1.68 0.4) rotate(-0.89)" fill="#1a1111" stroke="#fff" stroke-miterlimit="10"/></g><g id="wings"><path id="backPaws-2" data-name="backPaws" d="M3.75,43.24c-3,6.5-5.46,41.41-.07,49.41,4.48,6.66,19.43-30.95,9.75-44.29C10.57,44.42,4.59,41.41,3.75,43.24Z" fill="none" stroke="#fff" stroke-miterlimit="10"/><path id="backPaws-3" data-name="backPaws" d="M68.2,44.55c3,6.51,5.46,41.41.07,49.42C63.79,100.62,48.84,63,58.52,49.68,61.38,45.73,67.36,42.72,68.2,44.55Z" fill="none" stroke="#fff" stroke-miterlimit="10"/></g><g id="chest"><line x1="28.25" y1="58.38" x2="28.25" y2="77.75" fill="#54391b" stroke="#fff" stroke-miterlimit="10"/><line x1="32.34" y1="58.38" x2="32.34" y2="77.75" fill="#54391b" stroke="#fff" stroke-miterlimit="10"/><line x1="36.43" y1="58.38" x2="36.43" y2="77.75" fill="#54391b" stroke="#fff" stroke-miterlimit="10"/><line x1="40.52" y1="58.38" x2="40.52" y2="77.75" fill="#54391b" stroke="#fff" stroke-miterlimit="10"/><line x1="44.61" y1="58.38" x2="44.61" y2="77.75" fill="#54391b" stroke="#fff" stroke-miterlimit="10"/></g><g id="eye"><circle cx="26.36" cy="36.27" r="4.54" fill="#fff"/><circle cx="45.66" cy="36.25" r="4.54" fill="#fff"/></g><g id="pupil"><circle cx="27.95" cy="34.89" r="2.01" fill="#231f20"/><circle cx="44.95" cy="34.86" r="2.01" fill="#231f20"/></g><polygon id="nose-2" data-name="nose" points="29.02 41.99 42.7 41.99 35.86 52.36 29.02 41.99" fill="#ce4342"/></svg>