<svg id="owl" xmlns="http://www.w3.org/2000/svg" width="25.38mm" height="35.94mm" viewBox="0 0 71.95 101.88"><title>owl</title><path id="body" d="M36.81,101.38H35.14A34.55,34.55,0,0,1,.59,66.83V50.56c0-11.48,4.81-25.64,13.29-36.21A77.37,77.37,0,0,0,14.3,1.06c0-1.86,2.2,1.23,7.66,4.8,4.34-3.31,23.55-3.21,27.79-.07a32.1,32.1,0,0,1,7-4.65C57.45.8,56.59,3,57.79,13.8c8.26,10.55,13.57,25.45,13.57,36.76V66.83A34.55,34.55,0,0,1,36.81,101.38Z" fill="#847a6e" stroke="#fff" stroke-miterlimit="10"/><g id="eye"><circle cx="25.73" cy="20.59" r="5.18" fill="#fff"/><circle cx="46.34" cy="20.61" r="5.22" fill="#fff"/></g><g id="pupil"><circle cx="24.22" cy="18.5" r="2.01" fill="#231f20"/><circle cx="44.95" cy="18.55" r="2.01" fill="#231f20"/></g><polygon id="nose" points="31.67 25.07 40.46 25.07 36.06 32.64 31.67 25.07" fill="#231f20"/><path id="topRightPaw" d="M3.75,31.82c-3,5.31-5.46,33.82-.07,40.35C8.16,77.61,23.11,46.9,13.43,36,10.57,32.78,4.59,30.32,3.75,31.82Z" fill="none" stroke="#fff" stroke-miterlimit="10"/><path id="topLeftPaw" d="M68.2,32.89c3,5.32,5.46,33.82.07,40.36C63.79,78.68,48.84,48,58.52,37.08,61.38,33.86,67.36,31.4,68.2,32.89Z" fill="none" stroke="#fff" stroke-miterlimit="10"/><g id="chest"><line x1="28.25" y1="43.07" x2="28.25" y2="62.43" fill="#54391b" stroke="#fff" stroke-miterlimit="10"/><line x1="32.34" y1="43.07" x2="32.34" y2="62.43" fill="#54391b" stroke="#fff" stroke-miterlimit="10"/><line x1="36.43" y1="43.07" x2="36.43" y2="62.43" fill="#54391b" stroke="#fff" stroke-miterlimit="10"/><line x1="40.52" y1="43.07" x2="40.52" y2="62.43" fill="#54391b" stroke="#fff" stroke-miterlimit="10"/><line x1="44.61" y1="43.07" x2="44.61" y2="62.43" fill="#54391b" stroke="#fff" stroke-miterlimit="10"/></g><g id="backPaws"><ellipse cx="21.25" cy="96.04" rx="2.59" ry="5.18" transform="translate(-1.49 0.34) rotate(-0.89)" fill="#847a6e" stroke="#fff" stroke-miterlimit="10"/><ellipse cx="30.43" cy="95.91" rx="2.59" ry="5.18" transform="translate(-1.49 0.48) rotate(-0.89)" fill="#847a6e" stroke="#fff" stroke-miterlimit="10"/><ellipse cx="41.97" cy="96.04" rx="2.59" ry="5.18" transform="translate(-1.49 0.66) rotate(-0.89)" fill="#847a6e" stroke="#fff" stroke-miterlimit="10"/><ellipse cx="51.16" cy="95.91" rx="2.59" ry="5.18" transform="translate(-1.48 0.81) rotate(-0.89)" fill="#847a6e" stroke="#fff" stroke-miterlimit="10"/><ellipse cx="46.79" cy="95.97" rx="2.59" ry="5.18" transform="translate(-1.49 0.74) rotate(-0.89)" fill="#847a6e" stroke="#fff" stroke-miterlimit="10"/><ellipse cx="25.61" cy="95.97" rx="2.59" ry="5.18" transform="translate(-1.49 0.41) rotate(-0.89)" fill="#847a6e" stroke="#fff" stroke-miterlimit="10"/></g><polyline id="brows" points="21.96 5.86 36.02 16.07 49.75 5.79" fill="#847a6e" stroke="#fff" stroke-miterlimit="10"/></svg>