<svg id="bunny" xmlns="http://www.w3.org/2000/svg" width="26.67mm" height="39.9mm" viewBox="0 0 75.59 113.1"><title>bunny</title><path id="body" d="M40.54,112.6H38.86A34.54,34.54,0,0,1,4.31,78.06V61.79c0-11.49,8.35-41.91,31.25-48.86C21-5.07,13.26,24.79,7.34,22.54c-22.19-8.42,15.34-38.86,31.5-9.61,3.06-19,36.61-13.5,34.82,7.26-.3,3.47-4.78,4.75-7.13,2.19-7.69-8.36-22-21.37-23-9.66C67.68,23,75.09,50.48,75.09,61.79V78.06A34.54,34.54,0,0,1,40.54,112.6Z" fill="#8ea3ae" stroke="#fff" stroke-miterlimit="10"/><g id="eye"><circle cx="31.04" cy="35.09" r="3.95" fill="#fff"/><circle cx="47.84" cy="35.07" r="3.95" fill="#fff"/></g><g id="pupil"><circle cx="32.43" cy="33.88" r="1.75" fill="#231f20"/><circle cx="47.22" cy="33.86" r="1.75" fill="#231f20"/></g><g id="nose"><path d="M43.66,41.63c0,.82-2.32,3.28-4.57,3.28s-4.43-2.46-4.43-3.28c0-1.63,1.94-1.86,4.43-1.86S43.66,40,43.66,41.63Z" fill="#231f20"/><line x1="39.27" y1="50.02" x2="39.34" y2="44.02" fill="#6b4b2c" stroke="#231f20" stroke-miterlimit="10" stroke-width="0.75"/><path d="M32.68,47.09c4.84,4,9,3.58,12.75,0" fill="none" stroke="#231f20" stroke-miterlimit="10" stroke-width="0.75"/></g><g id="topRightPaw"><path d="M6,49.82C7.61,44.55,30.09,68.33,31.62,71.6c3.1,6.6-24.44-4-26.76-14.42C4.52,55.64,4.83,53.39,6,49.82Z" fill="none" stroke="#fff" stroke-miterlimit="10"/><path d="M28.76,67.92s-.82,4.8-3.68,4.4S30,73.85,30.6,73.75s1.94-1.33,1-2.15A31.25,31.25,0,0,1,28.76,67.92Z" fill="#fff"/></g><g id="leftTopPaw"><path d="M73.37,49C71.71,43.73,49.23,67.51,47.7,70.78c-3.1,6.6,24.44-4,26.76-14.42C74.8,54.83,74.49,52.58,73.37,49Z" fill="none" stroke="#fff" stroke-miterlimit="10"/><path d="M50.82,67.07s.81,4.8,3.68,4.39S49.59,73,49,72.89,47,71.57,48,70.75A31.62,31.62,0,0,0,50.82,67.07Z" fill="#fff"/></g><g id="wiskers"><line x1="15.02" y1="39.79" x2="27.09" y2="42.93" fill="#223f1c" stroke="#fff" stroke-miterlimit="10" stroke-width="0.5"/><line x1="14.54" y1="42.32" x2="27.09" y2="44.22" fill="#223f1c" stroke="#fff" stroke-miterlimit="10" stroke-width="0.5"/><line x1="13.66" y1="44.84" x2="27.16" y2="46" fill="#223f1c" stroke="#fff" stroke-miterlimit="10" stroke-width="0.5"/><line x1="63.38" y1="40.34" x2="51.31" y2="43.47" fill="#223f1c" stroke="#fff" stroke-miterlimit="10" stroke-width="0.5"/><line x1="63.86" y1="42.86" x2="51.31" y2="44.77" fill="#223f1c" stroke="#fff" stroke-miterlimit="10" stroke-width="0.5"/><line x1="64.75" y1="45.38" x2="51.25" y2="46.54" fill="#223f1c" stroke="#fff" stroke-miterlimit="10" stroke-width="0.5"/></g><g id="backPaws"><ellipse cx="32.53" cy="98.28" rx="7.09" ry="13.96" fill="#8ea3ae" stroke="#fff" stroke-miterlimit="10"/><circle cx="32.73" cy="95.69" r="2.86" fill="#fff"/><ellipse cx="35.88" cy="90.77" rx="1.78" ry="1.38" transform="translate(-61.47 83.74) rotate(-64.3)" fill="#fff"/><ellipse cx="32.8" cy="89.28" rx="1.38" ry="1.78" transform="translate(-6.23 2.54) rotate(-4.05)" fill="#fff"/><ellipse cx="29.77" cy="90.5" rx="1.38" ry="1.78" transform="translate(-27.1 14.07) rotate(-18.44)" fill="#fff"/><ellipse cx="47.16" cy="98.22" rx="7.09" ry="14.11" fill="#8ea3ae" stroke="#fff" stroke-miterlimit="10"/><circle cx="46.6" cy="95.18" r="3.15" fill="#fff"/><ellipse cx="50.06" cy="89.77" rx="1.95" ry="1.52" transform="translate(-52.54 95.95) rotate(-64.3)" fill="#fff"/><ellipse cx="46.75" cy="89.06" rx="1.38" ry="1.78" transform="translate(-6.18 3.53) rotate(-4.05)" fill="#fff"/><ellipse cx="43.72" cy="90.27" rx="1.38" ry="1.78" transform="translate(-26.31 18.47) rotate(-18.44)" fill="#fff"/></g></svg>