<svg id="cicada" xmlns="http://www.w3.org/2000/svg" xmlns:xlink="http://www.w3.org/1999/xlink" width="25.38mm" height="35.94mm" viewBox="0 0 71.95 101.88"><defs><linearGradient id="linear-gradient" x1="2.83" y1="95.59" x2="15.25" y2="83.17" gradientUnits="userSpaceOnUse"><stop offset="0" stop-color="#abc4e6"/><stop offset="1" stop-color="#fff"/></linearGradient><linearGradient id="linear-gradient-2" x1="-15.86" y1="110.3" x2="-3.38" y2="97.82" gradientTransform="matrix(1.03, -0.47, 0.46, 0.89, -32.15, -13.2)" xlink:href="#linear-gradient"/><linearGradient id="linear-gradient-3" x1="-1.47" y1="100.87" x2="11.99" y2="87.4" gradientTransform="matrix(1.11, -0.23, 0.25, 0.97, -13.91, -10.14)" xlink:href="#linear-gradient"/><linearGradient id="linear-gradient-4" x1="-16.32" y1="99.06" x2="-2.82" y2="85.56" gradientTransform="matrix(1.1, -0.57, 0.53, 0.86, -31.58, -16.5)" xlink:href="#linear-gradient"/><linearGradient id="linear-gradient-5" x1="-11.85" y1="102.54" x2="1.64" y2="89.04" gradientTransform="matrix(1.1, -0.57, 0.53, 0.86, -31.58, -16.5)" xlink:href="#linear-gradient"/><linearGradient id="linear-gradient-6" x1="-4.65" y1="105.26" x2="8.85" y2="91.77" gradientTransform="matrix(1.1, -0.57, 0.53, 0.86, -31.58, -16.5)" xlink:href="#linear-gradient"/><linearGradient id="linear-gradient-7" x1="-2.13" y1="92.61" x2="11.37" y2="79.11" gradientTransform="matrix(1.3, -0.73, 0.65, 0.93, -35.84, -24.26)" xlink:href="#linear-gradient"/><linearGradient id="linear-gradient-8" x1="-8.35" y1="77.57" x2="5.14" y2="64.08" gradientTransform="matrix(1.38, -0.55, 0.53, 1.01, -27.32, -22.75)" xlink:href="#linear-gradient"/><linearGradient id="linear-gradient-9" x1="-5" y1="83.67" x2="8.49" y2="70.17" gradientTransform="matrix(1.34, -0.64, 0.59, 0.97, -31.76, -23.12)" xlink:href="#linear-gradient"/><linearGradient id="linear-gradient-10" x1="-25.27" y1="89.07" x2="-11.86" y2="75.66" gradientTransform="matrix(0.38, -1.57, 1.25, 0.18, -74.7, -9.21)" xlink:href="#linear-gradient"/><linearGradient id="linear-gradient-11" x1="9.61" y1="59.5" x2="23.09" y2="46.01" gradientTransform="matrix(1.23, -0.38, 0.38, 0.9, -29.69, -8.37)" xlink:href="#linear-gradient"/><linearGradient id="linear-gradient-12" x1="4.09" y1="72.03" x2="17.59" y2="58.53" gradientTransform="matrix(1.13, -0.78, 0.72, 0.93, -43.76, -17.23)" xlink:href="#linear-gradient"/><linearGradient id="linear-gradient-13" x1="45.99" y1="96.2" x2="58.41" y2="83.78" gradientTransform="matrix(-1, 0, 0, 1, 115.07, 0)" xlink:href="#linear-gradient"/><linearGradient id="linear-gradient-14" x1="17.88" y1="128.82" x2="30.36" y2="116.34" gradientTransform="matrix(-1.03, -0.47, -0.46, 0.89, 147.22, -13.2)" xlink:href="#linear-gradient"/><linearGradient id="linear-gradient-15" x1="35.43" y1="110.27" x2="48.9" y2="96.8" gradientTransform="matrix(-1.11, -0.23, -0.25, 0.97, 128.98, -10.14)" xlink:href="#linear-gradient"/><linearGradient id="linear-gradient-16" x1="13.2" y1="119.38" x2="26.7" y2="105.88" gradientTransform="matrix(-1.1, -0.57, -0.53, 0.86, 146.65, -16.5)" xlink:href="#linear-gradient"/><linearGradient id="linear-gradient-17" x1="17.66" y1="122.86" x2="31.16" y2="109.36" gradientTransform="matrix(-1.1, -0.57, -0.53, 0.86, 146.65, -16.5)" xlink:href="#linear-gradient"/><linearGradient id="linear-gradient-18" x1="24.87" y1="125.58" x2="38.36" y2="112.08" gradientTransform="matrix(-1.1, -0.57, -0.53, 0.86, 146.65, -16.5)" xlink:href="#linear-gradient"/><linearGradient id="linear-gradient-19" x1="21.45" y1="111.79" x2="34.95" y2="98.29" gradientTransform="matrix(-1.3, -0.73, -0.65, 0.93, 150.91, -24.26)" xlink:href="#linear-gradient"/><linearGradient id="linear-gradient-20" x1="17.29" y1="92.21" x2="30.79" y2="78.72" gradientTransform="matrix(-1.38, -0.55, -0.53, 1.01, 142.4, -22.75)" xlink:href="#linear-gradient"/><linearGradient id="linear-gradient-21" x1="19.62" y1="100.71" x2="33.12" y2="87.21" gradientTransform="matrix(-1.34, -0.64, -0.59, 0.97, 146.83, -23.12)" xlink:href="#linear-gradient"/><linearGradient id="linear-gradient-22" x1="-21.8" y1="122.6" x2="-8.4" y2="109.19" gradientTransform="matrix(-0.38, -1.57, -1.25, 0.18, 189.78, -9.21)" xlink:href="#linear-gradient"/><linearGradient id="linear-gradient-23" x1="40.5" y1="73.21" x2="53.99" y2="59.73" gradientTransform="matrix(-1.23, -0.38, -0.38, 0.9, 144.77, -8.37)" xlink:href="#linear-gradient"/><linearGradient id="linear-gradient-24" x1="28.68" y1="93.33" x2="42.19" y2="79.82" gradientTransform="matrix(-1.13, -0.78, -0.72, 0.93, 158.83, -17.23)" xlink:href="#linear-gradient"/></defs><title>cicada</title><path id="body" d="M36.81,101.38H35.14A34.55,34.55,0,0,1,.59,66.83V50.56C.59,39.08,10.79,21.27,22.25,7c5.39-3.83,23.26-4.3,27.5-1.16,9.72,11.39,21.61,33.46,21.61,44.77V66.83A34.55,34.55,0,0,1,36.81,101.38Z" fill="#58595b" stroke="#fff" stroke-miterlimit="10"/><g id="eye"><ellipse cx="23.16" cy="9.26" rx="6.1" ry="4.22" transform="translate(0.34 19.32) rotate(-45.58)" fill="#f7941d"/></g><g id="stripes" opacity="0.5"><rect x="25.52" y="25.36" width="22.09" height="2.86" fill="#808285"/><rect x="25.52" y="34.56" width="22.09" height="2.86" fill="#808285"/><rect x="25.52" y="43.77" width="22.09" height="2.86" fill="#808285"/><rect x="25.52" y="52.97" width="22.09" height="2.86" fill="#808285"/><rect x="25.52" y="62.18" width="22.09" height="2.86" fill="#808285"/><rect x="25.52" y="71.38" width="22.09" height="2.86" fill="#808285"/><rect x="19.52" y="80.58" width="30.14" height="2.66" fill="#808285"/><rect x="13.11" y="89.79" width="44.18" height="2.86" fill="#808285"/></g><g id="wings"><g opacity="0.85"><path id="topRightPaw" d="M13,19c-2.61,1.55-17.4,2.21-10.22,80.43C3.42,107,61.22,56.15,23.24,23.55,19.74,20.55,14.52,18.1,13,19Z" fill="#fff"/><path id="topRightPaw-2" data-name="topRightPaw" d="M12.32,80.59c-.65.12-3.74-.89-8.15,16.2-.42,1.65,15.28-4.61,9.93-14.45C13.6,81.43,12.72,80.51,12.32,80.59Z" fill="url(#linear-gradient)"/><path id="topRightPaw-3" data-name="topRightPaw" d="M5.24,74.83c-.61.43-4.24,1-1,18.38.31,1.69,13.59-11.45,3.64-17.66C6.94,75,5.61,74.58,5.24,74.83Z" fill="url(#linear-gradient-2)"/><path id="topRightPaw-4" data-name="topRightPaw" d="M17,70.16c-.75.3-4.71,0-5.45,19.12-.07,1.85,17-8.73,8-17.72C18.73,70.73,17.43,70,17,70.16Z" fill="url(#linear-gradient-3)"/><path id="topRightPaw-5" data-name="topRightPaw" d="M6,57.83c-.7.52-4.93,1.52-.47,20.1C6,79.73,21,64.11,9.09,58.35,8,57.81,6.42,57.51,6,57.83Z" fill="url(#linear-gradient-4)"/><path id="topRightPaw-6" data-name="topRightPaw" d="M12.73,58.27c-.7.52-4.93,1.52-.47,20.1.43,1.8,15.48-13.82,3.57-19.58C14.73,58.26,13.16,58,12.73,58.27Z" fill="url(#linear-gradient-5)"/><path id="topRightPaw-7" data-name="topRightPaw" d="M22.08,56.5c-.7.53-4.93,1.52-.47,20.11C22,78.41,37.09,62.78,25.18,57,24.08,56.49,22.51,56.19,22.08,56.5Z" fill="url(#linear-gradient-6)"/><path id="topRightPaw-8" data-name="topRightPaw" d="M24.84,40.52c-.83.65-5.86,2.11-.14,22.75.55,2,18.21-16.83,3.85-22.41C27.23,40.35,25.34,40.13,24.84,40.52Z" fill="url(#linear-gradient-7)"/><path id="topRightPaw-9" data-name="topRightPaw" d="M7.72,37.78c-.9.53-6.08,1.3-3.1,22.53.29,2.06,20.24-14.24,6.74-21.69C10.11,37.93,8.27,37.46,7.72,37.78Z" fill="url(#linear-gradient-8)"/><path id="topRightPaw-10" data-name="topRightPaw" d="M15.51,38.58c-.86.59-6,1.72-1.56,22.7.43,2,19.23-15.63,5.25-22.12C17.91,38.56,16,38.22,15.51,38.58Z" fill="url(#linear-gradient-9)"/><path id="topRightPaw-11" data-name="topRightPaw" d="M10.58,27.48c-.11,1.15-2.72,6.28,18.13,17.23,2,1.06.21-27.27-15.07-19.95C12.24,25.43,10.64,26.79,10.58,27.48Z" fill="url(#linear-gradient-10)"/><path id="topRightPaw-12" data-name="topRightPaw" d="M11.36,22.84c-.81.4-5.32.7-4.19,19.09.11,1.78,18.38-10.82,7.26-18.12C13.41,23.13,11.86,22.61,11.36,22.84Z" fill="url(#linear-gradient-11)"/><path id="topRightPaw-13" data-name="topRightPaw" d="M12.82,23.22c-.7.68-5.24,2.31,2.49,23.19.75,2,15.12-17.67,1-22.95C15,23,13.25,22.81,12.82,23.22Z" fill="url(#linear-gradient-12)"/></g><g opacity="0.85"><path id="topRightPaw-14" data-name="topRightPaw" d="M59,19.64c2.61,1.55,17.39,2.21,10.22,80.44-.7,7.57-58.5-43.31-20.52-75.91C52.17,21.16,57.39,18.71,59,19.64Z" fill="#fff"/><path id="topRightPaw-15" data-name="topRightPaw" d="M59.59,81.2c.65.12,3.74-.88,8.15,16.2.43,1.66-15.28-4.61-9.92-14.45C58.31,82.05,59.2,81.12,59.59,81.2Z" fill="url(#linear-gradient-13)"/><path id="topRightPaw-16" data-name="topRightPaw" d="M66.67,75.45c.61.42,4.24,1,1,18.38-.31,1.68-13.59-11.45-3.65-17.67C65,75.59,66.3,75.19,66.67,75.45Z" fill="url(#linear-gradient-14)"/><path id="topRightPaw-17" data-name="topRightPaw" d="M54.94,70.78c.74.29,4.7,0,5.44,19.12.07,1.85-17-8.74-8-17.73C53.18,71.34,54.49,70.6,54.94,70.78Z" fill="url(#linear-gradient-15)"/><path id="topRightPaw-18" data-name="topRightPaw" d="M65.92,58.44c.7.53,4.93,1.52.48,20.11C66,80.35,50.91,64.72,62.83,59,63.92,58.43,65.5,58.13,65.92,58.44Z" fill="url(#linear-gradient-16)"/><path id="topRightPaw-19" data-name="topRightPaw" d="M59.18,58.89c.7.52,4.93,1.52.48,20.1-.44,1.8-15.49-13.82-3.58-19.59C57.18,58.87,58.76,58.57,59.18,58.89Z" fill="url(#linear-gradient-17)"/><path id="topRightPaw-20" data-name="topRightPaw" d="M49.83,57.12c.7.52,4.93,1.52.48,20.1C49.87,79,34.82,63.4,46.73,57.63,47.83,57.1,49.41,56.8,49.83,57.12Z" fill="url(#linear-gradient-18)"/><path id="topRightPaw-21" data-name="topRightPaw" d="M47.07,41.14c.83.64,5.86,2.1.14,22.75-.55,2-18.21-16.84-3.85-22.42C44.68,41,46.57,40.74,47.07,41.14Z" fill="url(#linear-gradient-19)"/><path id="topRightPaw-22" data-name="topRightPaw" d="M64.19,38.4c.91.52,6.09,1.29,3.1,22.53-.29,2-20.24-14.24-6.73-21.7C61.8,38.54,63.65,38.08,64.19,38.4Z" fill="url(#linear-gradient-20)"/><path id="topRightPaw-23" data-name="topRightPaw" d="M56.4,39.19c.87.59,6,1.73,1.56,22.7-.43,2-19.23-15.63-5.24-22.12C54,39.17,55.88,38.84,56.4,39.19Z" fill="url(#linear-gradient-21)"/><path id="topRightPaw-24" data-name="topRightPaw" d="M61.33,28.09c.11,1.15,2.73,6.29-18.13,17.23-2,1.06-.2-27.26,15.07-19.95C59.68,26.05,61.27,27.4,61.33,28.09Z" fill="url(#linear-gradient-22)"/><path id="topRightPaw-25" data-name="topRightPaw" d="M60.55,23.46c.81.39,5.32.7,4.19,19.08-.11,1.78-18.37-10.81-7.26-18.12C58.5,23.75,60.06,23.22,60.55,23.46Z" fill="url(#linear-gradient-23)"/><path id="topRightPaw-26" data-name="topRightPaw" d="M59.09,23.83c.7.68,5.24,2.31-2.49,23.19-.75,2-15.11-17.66-1-23C56.87,23.59,58.66,23.42,59.09,23.83Z" fill="url(#linear-gradient-24)"/></g></g><polygon points="20.7 5.67 28.07 9.43 26.84 11.4 19.2 7.45 20.7 5.67" fill="#231f20"/><g id="eye-2" data-name="eye"><ellipse cx="49.52" cy="9.05" rx="4.22" ry="6.1" transform="translate(9.01 38.94) rotate(-46.77)" fill="#f7941d"/></g><polygon points="45.99 11.59 49.59 4.15 51.59 5.33 47.79 13.05 45.99 11.59" fill="#231f20"/><g id="mustage"><path d="M32.66,4.56s5.09,15.19.47,16.94-4.05-3.19-3.7-3.51,4.16-1,2,3.51" fill="none" stroke="#231f20" stroke-miterlimit="10"/><path d="M39.42,4.29S34.34,19.65,39,21.43s4-3.23,3.7-3.56-4.16-1-2,3.56" fill="none" stroke="#231f20" stroke-miterlimit="10"/></g></svg>