<svg id="racoon" xmlns="http://www.w3.org/2000/svg" width="25.45mm" height="35.85mm" viewBox="0 0 72.14 101.62"><title>raccon</title><path id="body" d="M37.09,101.12H35.41A34.54,34.54,0,0,1,.86,66.58V50.31c0-11.49,4.82-25.64,13.3-36.21-4-7.93-1.15-20.78,8.08-8.49A22.69,22.69,0,0,1,36.25.5h0c4.89,0,9.54,1.89,13.77,5,4.64-7.29,10.67-5.34,8,8C66.33,24.09,71.64,39,71.64,50.31V66.58A34.54,34.54,0,0,1,37.09,101.12Z" fill="#9c8156" stroke="#fff" stroke-miterlimit="10"/><g id="earsInside"><path d="M16.2,11.37A43.5,43.5,0,0,1,21,6.87c.61-.48-3-4.53-4.78-4.5C13.8,2.41,13.55,5.64,16.2,11.37Z" fill="#fff"/><path d="M55.29,12.09a39.65,39.65,0,0,0-3.81-4.5c-.49-.48,2.36-4.53,3.81-4.5C57.21,3.12,57.41,6.36,55.29,12.09Z" fill="#fff"/></g><g id="nose"><path d="M40.2,30.15c0,.82-2.31,3.28-4.56,3.28S31.2,31,31.2,30.15c0-1.63,1.95-1.86,4.44-1.86S40.2,28.52,40.2,30.15Z" fill="#231f20"/><line x1="35.82" y1="38.54" x2="35.89" y2="32.54" fill="#6b4b2c" stroke="#231f20" stroke-miterlimit="10" stroke-width="0.75"/><path d="M29.23,35.61c4.84,4,9,3.58,12.75,0" fill="none" stroke="#231f20" stroke-miterlimit="10" stroke-width="0.75"/></g><g id="topRightPaw"><path d="M2.5,38.34c1.66-5.27,24.14,18.51,25.67,21.78,3.09,6.6-24.44-4-26.76-14.42C1.07,44.16,1.37,41.91,2.5,38.34Z" fill="none" stroke="#fff" stroke-miterlimit="10"/><path d="M25.31,56.44s-.82,4.8-3.69,4.4,4.91,1.53,5.53,1.43,1.94-1.33,1-2.15A31.25,31.25,0,0,1,25.31,56.44Z" fill="#231f20"/></g><g id="topLeftPaw"><path d="M69.92,37.52C68.26,32.25,45.78,56,44.25,59.3c-3.1,6.6,24.44-4,26.76-14.42C71.35,43.35,71,41.1,69.92,37.52Z" fill="none" stroke="#fff" stroke-miterlimit="10"/><path d="M47.37,55.59s.81,4.8,3.68,4.39-4.91,1.54-5.53,1.43-1.94-1.32-1-2.14A31.62,31.62,0,0,0,47.37,55.59Z" fill="#231f20"/></g><g id="tail"><path d="M36.72,100.17H35.05A34.55,34.55,0,0,1,.5,65.62C23,83.24,46.1,87.5,71.27,65.62A34.55,34.55,0,0,1,36.72,100.17Z" fill="#9c8156" stroke="#fff" stroke-miterlimit="10"/><path d="M55.27,76.52c1.46-.8,11,2.76,9.67,7.67-.24.88,4.71-5.93,6.56-17.49C71.67,65.61,56.5,77.47,55.27,76.52Z" fill="#231f20"/><path d="M50.11,79.07c1.43-.92,10.84,1.84,11.15,9.62A14.23,14.23,0,0,1,54,94.93c.91-5.44-4-10-10.43-14.32Z" fill="#231f20"/><path d="M36,81.12c1.69-.21,12.27,6.54,9.72,17.08-4.2,2-12.75,1.13-12.75,1.13,3.2-4.5.14-12-3.72-18.72Z" fill="#231f20"/></g><g id="eyesUnder"><ellipse cx="21.2" cy="26.82" rx="14.36" ry="9.63" transform="translate(-12.96 28.28) rotate(-54.11)" fill="#231f20"/><ellipse cx="50.84" cy="26.78" rx="9.63" ry="14.36" transform="translate(-6.05 34.89) rotate(-35.89)" fill="#231f20"/></g><g id="eye"><circle cx="27.59" cy="23.61" r="3.95" fill="#fff"/><circle cx="44.39" cy="23.59" r="3.95" fill="#fff"/></g><g id="pupil"><circle cx="28.98" cy="22.4" r="1.75" fill="#231f20"/><circle cx="43.77" cy="22.38" r="1.75" fill="#231f20"/></g><g id="wiskers"><line x1="11.57" y1="28.31" x2="23.64" y2="31.45" fill="#231f20" stroke="#fff" stroke-miterlimit="10" stroke-width="0.5"/><line x1="11.09" y1="30.84" x2="23.64" y2="32.74" fill="#231f20" stroke="#fff" stroke-miterlimit="10" stroke-width="0.5"/><line x1="10.2" y1="33.36" x2="23.7" y2="34.52" fill="#231f20" stroke="#fff" stroke-miterlimit="10" stroke-width="0.5"/><line x1="59.93" y1="28.86" x2="47.86" y2="31.99" fill="#231f20" stroke="#fff" stroke-miterlimit="10" stroke-width="0.5"/><line x1="60.41" y1="31.38" x2="47.86" y2="33.29" fill="#231f20" stroke="#fff" stroke-miterlimit="10" stroke-width="0.5"/><line x1="61.3" y1="33.9" x2="47.8" y2="35.06" fill="#231f20" stroke="#fff" stroke-miterlimit="10" stroke-width="0.5"/></g></svg>