<svg id="wolf" xmlns="http://www.w3.org/2000/svg" width="25.32mm" height="37.27mm" viewBox="0 0 71.77 105.64"><title>wolf</title><path id="body" d="M36.72,105.14H35.05A34.55,34.55,0,0,1,.5,70.59V54.32c0-11.48,4.82-25.64,13.3-36.21-.48-18-.55-24.31,8.08-8.49a22.67,22.67,0,0,1,14-5.11h0a23.11,23.11,0,0,1,13.77,5c7.5-18.27,6.41-5.38,8.05,8C66,28.11,71.27,43,71.27,54.32V70.59A34.55,34.55,0,0,1,36.72,105.14Z" fill="#84746b" stroke="#fff" stroke-miterlimit="10"/><g id="eye"><circle cx="27.23" cy="27.62" r="3.95" fill="#fff"/><circle cx="44.02" cy="27.6" r="3.95" fill="#fff"/></g><g id="pupil"><circle cx="28.61" cy="26.42" r="1.75" fill="#231f20"/><circle cx="43.41" cy="26.39" r="1.75" fill="#231f20"/></g><g id="earsInside"><path d="M15.84,15.38a46.24,46.24,0,0,1,4.77-4.5c.62-.47-3.54-7.92-4.77-6.58C15.16,5.05,15.57,7.78,15.84,15.38Z" fill="#fff"/><path d="M55.39,16c-.31-.51-3-3-4.28-4.43-.23-.27,2-8,3.26-7.3C55.25,4.78,55.18,7.17,55.39,16Z" fill="#fff"/></g><g id="tail"><path d="M36.72,104.83H35.19c-17.43,0-31.55-9.71-31.55-21.69,20.52,11.06,41.65,13.73,64.63,0C68.27,95.12,54.15,104.83,36.72,104.83Z" fill="#84746b" stroke="#fff" stroke-miterlimit="10"/></g><g id="topRightPaw"><path d="M2.14,42.35c1.65-5.27,24.13,18.51,25.67,21.78,3.09,6.6-24.45-4-26.76-14.42C.7,48.18,1,45.93,2.14,42.35Z" fill="none" stroke="#fff" stroke-miterlimit="10"/><path d="M24.94,60.45s-.81,4.81-3.68,4.4,4.91,1.53,5.52,1.43,1.95-1.33,1-2.15A31.62,31.62,0,0,1,24.94,60.45Z" fill="#fff"/></g><g id="topLeftPaw"><path d="M69.55,41.53C67.9,36.26,45.42,60,43.88,63.31c-3.09,6.61,24.45-4,26.76-14.42C71,47.36,70.68,45.11,69.55,41.53Z" fill="none" stroke="#fff" stroke-miterlimit="10"/><path d="M47,59.6s.82,4.81,3.68,4.4-4.91,1.53-5.52,1.43-1.94-1.33-1-2.15A31.25,31.25,0,0,0,47,59.6Z" fill="#fff"/></g><g id="wiskers"><line x1="11.2" y1="32.33" x2="23.27" y2="35.46" fill="#223f1c" stroke="#fff" stroke-miterlimit="10" stroke-width="0.5"/><line x1="10.73" y1="34.85" x2="23.27" y2="36.76" fill="#223f1c" stroke="#fff" stroke-miterlimit="10" stroke-width="0.5"/><line x1="9.84" y1="37.37" x2="23.34" y2="38.53" fill="#223f1c" stroke="#fff" stroke-miterlimit="10" stroke-width="0.5"/><line x1="59.57" y1="32.87" x2="47.5" y2="36.01" fill="#223f1c" stroke="#fff" stroke-miterlimit="10" stroke-width="0.5"/><line x1="60.05" y1="35.39" x2="47.5" y2="37.3" fill="#223f1c" stroke="#fff" stroke-miterlimit="10" stroke-width="0.5"/><line x1="60.93" y1="37.92" x2="47.43" y2="39.08" fill="#223f1c" stroke="#fff" stroke-miterlimit="10" stroke-width="0.5"/></g><g id="nose"><path d="M42.57,36.28c.65,3.85-3.24,5.35-7.23,5.35a9.87,9.87,0,0,1-2.45-.13A6.07,6.07,0,0,1,31.46,41c-2.76-1.51-3.38-2.22-3.37-4.45,0-2.91,3.23-4.86,7.22-4.86S42,33,42.57,36.28Z" fill="#fff"/><path d="M40.05,33.53c0,.82-2.32,3.27-4.57,3.27s-4.43-2.45-4.43-3.27c0-1.64,1.94-1.86,4.43-1.86S40.05,31.89,40.05,33.53Z" fill="#231f20"/><line x1="35.66" y1="41.92" x2="35.73" y2="35.92" fill="#6b4b2c" stroke="#231f20" stroke-miterlimit="10" stroke-width="0.75"/><path d="M29.07,39c4.85,4.05,9,3.59,12.75,0" fill="none" stroke="#231f20" stroke-miterlimit="10" stroke-width="0.75"/></g><g id="teeth"><polygon points="32.58 43.78 31.39 41.12 33.09 41.7 32.58 43.78" fill="#fff"/><polygon points="38.17 41.8 39.5 41.16 38.75 43.71 38.17 41.8" fill="#fff"/></g></svg>