<svg id="woody" xmlns="http://www.w3.org/2000/svg" width="25.38mm" height="35.57mm" viewBox="0 0 71.95 100.84"><title>woody</title><path id="body" d="M36.81,100.34H35.14A34.55,34.55,0,0,1,.59,65.79V49.52C.59,38,5.4,23.88,13.88,13.31,25.45-3,43.45-4,57.79,12.76,66.05,23.3,71.36,38.21,71.36,49.52V65.79A34.55,34.55,0,0,1,36.81,100.34Z" fill="#423d3e" stroke="#fff" stroke-miterlimit="10"/><g id="eye"><circle cx="26.36" cy="23.91" r="4.54" fill="#fff"/><circle cx="45.66" cy="23.88" r="4.54" fill="#fff"/></g><g id="pupil"><circle cx="27.95" cy="22.53" r="2.01" fill="#231f20"/><circle cx="44.95" cy="22.5" r="2.01" fill="#231f20"/></g><polygon id="nose" points="31.67 26.16 40.46 26.16 36.06 44.98 31.67 26.16" fill="#231f20"/><path id="topRightPaw" d="M3.75,30.87c-3,6.51-5.46,41.42-.07,49.42C8.16,87,23.11,49.34,13.43,36,10.57,32.06,4.59,29,3.75,30.87Z" fill="none" stroke="#fff" stroke-miterlimit="10"/><path id="topLeftPaw" d="M68.2,32.19c3,6.51,5.46,41.41.07,49.41-4.48,6.66-19.43-30.94-9.75-44.28C61.38,33.37,67.36,30.36,68.2,32.19Z" fill="none" stroke="#fff" stroke-miterlimit="10"/><g id="chest"><line x1="28.25" y1="46.02" x2="28.25" y2="65.39" fill="#54391b" stroke="#fff" stroke-miterlimit="10"/><line x1="32.34" y1="46.02" x2="32.34" y2="65.39" fill="#54391b" stroke="#fff" stroke-miterlimit="10"/><line x1="36.43" y1="46.02" x2="36.43" y2="65.39" fill="#54391b" stroke="#fff" stroke-miterlimit="10"/><line x1="40.52" y1="46.02" x2="40.52" y2="65.39" fill="#54391b" stroke="#fff" stroke-miterlimit="10"/><line x1="44.61" y1="46.02" x2="44.61" y2="65.39" fill="#54391b" stroke="#fff" stroke-miterlimit="10"/></g><g id="backPaws"><ellipse cx="21.25" cy="95" rx="2.59" ry="5.18" transform="translate(-1.47 0.34) rotate(-0.89)" fill="#c82f27" stroke="#fff" stroke-miterlimit="10"/><ellipse cx="30.43" cy="94.87" rx="2.59" ry="5.18" transform="translate(-1.47 0.48) rotate(-0.89)" fill="#c82f27" stroke="#fff" stroke-miterlimit="10"/><ellipse cx="41.97" cy="95" rx="2.59" ry="5.18" transform="translate(-1.47 0.66) rotate(-0.89)" fill="#c82f27" stroke="#fff" stroke-miterlimit="10"/><ellipse cx="51.16" cy="94.87" rx="2.59" ry="5.18" transform="translate(-1.47 0.81) rotate(-0.89)" fill="#c82f27" stroke="#fff" stroke-miterlimit="10"/><ellipse cx="46.79" cy="94.93" rx="2.59" ry="5.18" transform="translate(-1.47 0.74) rotate(-0.89)" fill="#c82f27" stroke="#fff" stroke-miterlimit="10"/><ellipse cx="25.61" cy="94.93" rx="2.59" ry="5.18" transform="translate(-1.47 0.41) rotate(-0.89)" fill="#c82f27" stroke="#fff" stroke-miterlimit="10"/></g><path d="M55.79,11.75c0,5.31-40.1,6.1-40.09.82C15.71,8,27.84.5,35.07.5S55.8,7.15,55.79,11.75Z" fill="#c82f27" stroke="#fff" stroke-miterlimit="10"/></svg>